<svg width="19" height="19" viewBox="0 0 19 19" fill="none" xmlns="http://www.w3.org/2000/svg">
<circle cx="9.5" cy="9.5" r="9.5" fill="#141414" fill-opacity="0.3"/>
<path d="M8.736 11.348C8.736 11.028 8.788 10.748 8.892 10.508C9.004 10.26 9.136 10.052 9.288 9.884C9.448 9.716 9.656 9.516 9.912 9.284C10.232 9.004 10.468 8.764 10.62 8.564C10.772 8.356 10.848 8.108 10.848 7.82C10.848 7.428 10.696 7.116 10.392 6.884C10.088 6.644 9.668 6.524 9.132 6.524C8.196 6.524 7.48 6.84 6.984 7.472L6.108 6.848C6.444 6.416 6.872 6.084 7.392 5.852C7.92 5.62 8.528 5.504 9.216 5.504C10.088 5.504 10.78 5.696 11.292 6.08C11.804 6.456 12.06 6.976 12.06 7.64C12.06 7.968 12.004 8.26 11.892 8.516C11.788 8.764 11.66 8.972 11.508 9.14C11.356 9.308 11.152 9.508 10.896 9.74C10.568 10.036 10.324 10.296 10.164 10.52C10.012 10.744 9.936 11.02 9.936 11.348H8.736ZM9.348 14.072C9.124 14.072 8.936 14 8.784 13.856C8.64 13.704 8.568 13.52 8.568 13.304C8.568 13.088 8.64 12.908 8.784 12.764C8.936 12.612 9.124 12.536 9.348 12.536C9.572 12.536 9.756 12.612 9.9 12.764C10.044 12.908 10.116 13.088 10.116 13.304C10.116 13.52 10.04 13.704 9.888 13.856C9.744 14 9.564 14.072 9.348 14.072Z" fill="black"/>
</svg>
